<?xml version="1.0" standalone="no"?>
<!DOCTYPE svg PUBLIC "-//W3C//DTD SVG 20010904//EN"
 "http://www.w3.org/TR/2001/REC-SVG-20010904/DTD/svg10.dtd">
<svg version="1.0" xmlns="http://www.w3.org/2000/svg"
 width="512.000000pt" height="512.000000pt" viewBox="0 0 512.000000 512.000000"
 preserveAspectRatio="xMidYMid meet">

<g transform="translate(0.000000,512.000000) scale(0.100000,-0.100000)"
fill="#000000" stroke="none">
<path d="M2528 4946 c-15 -8 -159 -115 -320 -238 l-293 -223 -612 -5 -612 -5
-23 -23 -23 -23 -3 -457 -4 -457 -226 -171 c-125 -93 -233 -181 -239 -195 -10
-19 -12 -337 -10 -1481 l2 -1457 23 -23 23 -23 2349 0 2349 0 23 23 23 23 2
1457 c2 1144 0 1462 -10 1481 -6 14 -113 101 -237 195 l-225 171 -5 457 -5
457 -23 23 -23 23 -612 5 -612 5 -294 224 c-262 200 -334 251 -351 251 -3 0
-17 -6 -32 -14z m231 -313 l195 -148 -197 -3 c-108 -1 -285 -1 -393 0 l-197 3
194 147 c107 81 196 148 199 148 2 0 92 -66 199 -147z m1559 -1080 l-3 -766
-650 -494 c-357 -272 -658 -498 -668 -504 -16 -9 -50 13 -213 137 -148 112
-202 147 -224 147 -23 0 -76 -35 -224 -147 -129 -98 -199 -145 -208 -140 -7 4
-309 232 -670 506 l-658 499 0 765 0 764 1760 0 1760 0 -2 -767z m-3678 -434
c0 -110 -3 -199 -8 -197 -15 6 -261 193 -261 198 0 6 251 198 262 199 4 1 7
-89 7 -200z m3982 101 c70 -52 127 -97 127 -100 0 -5 -246 -192 -261 -198 -5
-2 -8 87 -8 198 0 111 3 200 8 198 4 -1 64 -46 134 -98z m-3449 -904 c455
-345 827 -631 827 -636 0 -5 -372 -291 -827 -636 -456 -344 -834 -631 -840
-637 -10 -7 -13 248 -13 1273 0 1025 3 1280 13 1273 6 -6 384 -293 840 -637z
m3625 -1275 l-3 -640 -835 634 c-459 348 -835 639 -835 645 0 6 376 297 835
645 l835 634 3 -640 c1 -351 1 -927 0 -1278z m-1192 69 l1034 -785 -1040 -3
c-572 -1 -1508 -1 -2080 0 l-1040 3 1037 787 c571 433 1042 787 1047 785 4 -1
473 -356 1042 -787z"/>
<path d="M2490 3913 c-309 -38 -555 -253 -626 -550 -22 -89 -21 -248 1 -333
55 -210 190 -378 380 -470 124 -61 191 -73 402 -74 175 -1 183 0 204 21 29 29
29 77 0 106 -20 21 -33 22 -219 28 -162 4 -207 9 -253 25 -177 63 -316 213
-364 394 -19 70 -19 210 0 280 52 196 209 353 405 405 30 8 93 15 140 15 159
0 284 -52 395 -164 127 -128 165 -232 165 -453 0 -133 -1 -141 -23 -161 -32
-30 -87 -29 -115 1 -19 21 -22 35 -22 118 0 248 -70 383 -238 462 -60 28 -77
32 -157 32 -141 0 -243 -49 -325 -158 -55 -73 -75 -137 -75 -242 0 -80 4 -97
32 -157 109 -232 396 -304 600 -152 17 13 35 24 38 24 3 0 17 -13 31 -29 37
-45 107 -74 175 -74 113 0 206 76 230 190 16 79 5 286 -20 386 -77 297 -339
511 -651 530 -41 2 -91 2 -110 0z m170 -494 c60 -27 88 -54 116 -114 42 -88
25 -204 -39 -274 -36 -39 -115 -71 -177 -71 -62 0 -141 32 -177 71 -56 62 -77
165 -51 253 15 50 89 127 138 143 58 18 140 15 190 -8z"/>
</g>
</svg>
