<?xml version="1.0" encoding="UTF-8" standalone="no"?>
<!DOCTYPE svg PUBLIC "-//W3C//DTD SVG 1.1//EN" "http://www.w3.org/Graphics/SVG/1.1/DTD/svg11.dtd">
<svg width="100%" height="100%" viewBox="0 0 410 410" version="1.1" xmlns="http://www.w3.org/2000/svg" xmlns:xlink="http://www.w3.org/1999/xlink" xml:space="preserve" xmlns:serif="http://www.serif.com/" style="fill-rule:evenodd;clip-rule:evenodd;stroke-linejoin:round;stroke-miterlimit:2;">
    <g id="XMLID_377_">
        <path id="XMLID_388_" d="M349.212,17.002C254.787,-5.668 154.968,-5.668 60.543,17.002C56.047,18.081 52.877,22.102 52.877,26.726L52.877,255.091C52.877,285.405 67.237,312.774 92.303,330.188C128.928,355.531 166.099,383.282 198.895,407.767C200.669,409.092 202.773,409.754 204.877,409.754C206.984,409.754 209.092,409.089 210.867,407.761C243.677,383.215 280.864,355.394 317.54,329.967C342.542,312.564 356.876,285.215 356.876,254.936L356.876,26.726C356.877,22.103 353.707,18.082 349.212,17.002ZM336.877,254.938C336.877,278.579 325.668,299.943 306.13,313.542C271.392,337.626 236.317,363.752 204.871,387.271C173.44,363.812 138.386,337.755 103.699,313.753C84.108,300.142 72.877,278.761 72.877,255.093L72.877,34.664C159.877,15.107 249.877,15.107 336.877,34.664L336.877,254.938Z" style="fill:rgb(26,101,158);fill-rule:nonzero;"/>
        <path id="XMLID_396_" d="M101.083,49.313C96.331,50.18 92.877,54.32 92.877,59.151L92.877,255.098C92.877,272.118 100.955,287.494 115.063,297.296C144.845,317.904 174.149,339.481 198.886,357.87C200.657,359.186 202.754,359.845 204.852,359.845C206.953,359.845 209.054,359.185 210.826,357.865C235.576,339.427 264.894,317.796 294.689,297.138C308.792,287.321 316.877,271.939 316.877,254.937L316.877,59.15C316.877,54.319 313.423,50.179 308.671,49.312C274.489,43.079 239.567,39.919 204.877,39.919C170.187,39.919 135.265,43.08 101.083,49.313ZM296.877,254.938C296.877,265.301 291.917,274.699 283.278,280.712C255.618,299.889 228.415,319.863 204.845,337.384C181.29,319.91 154.102,299.988 126.458,280.86C117.825,274.861 112.876,265.472 112.876,255.099L112.876,67.556C142.876,62.487 174.157,59.92 204.876,59.92C235.595,59.92 266.876,62.487 296.876,67.556L296.876,254.938L296.877,254.938Z" style="fill:rgb(26,101,158);fill-rule:nonzero;"/>
        <path id="XMLID_397_" d="M162.675,179.716C158.803,175.776 152.47,175.723 148.533,179.595C144.595,183.467 144.54,189.798 148.412,193.737L187.079,233.07C188.961,234.985 191.531,236.06 194.21,236.06C194.277,236.06 194.345,236.06 194.412,236.058C197.163,236.002 199.77,234.816 201.618,232.777L272.951,154.11C276.66,150.019 276.351,143.694 272.26,139.985C268.169,136.275 261.844,136.584 258.135,140.675L193.917,211.496L162.675,179.716Z" style="fill:rgb(26,101,158);fill-rule:nonzero;"/>
    </g>
</svg>
