<?xml version="1.0" encoding="UTF-8" standalone="no"?>
<!DOCTYPE svg PUBLIC "-//W3C//DTD SVG 1.1//EN" "http://www.w3.org/Graphics/SVG/1.1/DTD/svg11.dtd">
<svg width="100%" height="100%" viewBox="0 0 407 407" version="1.1" xmlns="http://www.w3.org/2000/svg" xmlns:xlink="http://www.w3.org/1999/xlink" xml:space="preserve" xmlns:serif="http://www.serif.com/" style="fill-rule:evenodd;clip-rule:evenodd;stroke-linejoin:round;stroke-miterlimit:2;">
    <g id="XMLID_386_">
        <path id="XMLID_727_" d="M388.621,67.594L388.267,67.241C384.359,63.344 378.035,63.349 374.134,67.251L326.759,114.627L291.404,79.272L338.78,31.896C342.685,27.991 342.685,21.659 338.78,17.753L338.426,17.399C315.227,-5.799 277.479,-5.8 254.28,17.399L231.77,39.908C213.471,58.207 210.408,86.473 223.25,107.825L107.825,223.251C86.473,210.407 58.207,213.471 39.908,231.771L17.398,254.281C-5.799,277.48 -5.799,315.227 17.408,338.436L17.762,338.789C21.67,342.686 27.994,342.681 31.895,338.779L79.27,291.403L114.625,326.758L67.25,374.134C63.345,378.039 63.345,384.371 67.25,388.277L67.604,388.631C79.204,400.23 94.441,406.03 109.677,406.03C124.913,406.03 140.151,400.23 151.75,388.631L174.259,366.122C192.626,347.755 195.413,319.149 182.109,297.46L297.46,182.109C319.148,195.413 347.754,192.628 366.122,174.259L388.632,151.749C411.828,128.55 411.828,90.803 388.621,67.594ZM374.488,137.607L351.978,160.117C338.78,173.315 317.272,173.901 303.014,161.454C299.052,157.996 293.085,158.197 289.367,161.916L161.916,289.367C158.197,293.087 157.995,299.052 161.454,303.014C173.901,317.273 173.313,338.781 160.116,351.978L137.607,374.487C124.522,387.573 104.461,389.539 89.28,380.388L135.84,333.828C137.715,331.953 138.769,329.41 138.769,326.757C138.769,324.104 137.715,321.561 135.84,319.686L86.342,270.188C84.466,268.313 81.923,267.259 79.271,267.259C76.619,267.259 74.076,268.313 72.2,270.188L25.641,316.748C16.49,301.566 18.456,281.506 31.541,268.42L54.051,245.91C67.017,232.944 88.674,232.035 102.33,243.885C106.294,247.325 112.244,247.114 115.955,243.404L243.406,115.952C247.117,112.241 247.328,106.291 243.887,102.327C232.037,88.672 232.946,67.014 245.912,54.048L268.421,31.539C281.507,18.453 301.566,16.487 316.748,25.638L270.188,72.198C268.313,74.073 267.259,76.616 267.259,79.269C267.259,81.922 268.313,84.465 270.188,86.34L319.686,135.838C321.562,137.713 324.105,138.767 326.757,138.767C329.409,138.767 331.952,137.713 333.828,135.838L380.387,89.278C389.54,104.462 387.573,124.521 374.488,137.607Z" style="fill:rgb(26,101,158);fill-rule:nonzero;"/>
        <path id="XMLID_736_" d="M251.805,140.082L140.082,251.805C136.177,255.71 136.177,262.042 140.082,265.948C142.035,267.901 144.594,268.877 147.153,268.877C149.712,268.877 152.271,267.901 154.224,265.948L265.947,154.225C269.852,150.32 269.852,143.988 265.947,140.082C262.041,136.177 255.711,136.177 251.805,140.082Z" style="fill:rgb(26,101,158);fill-rule:nonzero;"/>
    </g>
</svg>
