<?xml version="1.0" encoding="UTF-8" standalone="no"?>
<!DOCTYPE svg PUBLIC "-//W3C//DTD SVG 1.1//EN" "http://www.w3.org/Graphics/SVG/1.1/DTD/svg11.dtd">
<svg width="100%" height="100%" viewBox="0 0 387 387" version="1.1" xmlns="http://www.w3.org/2000/svg" xmlns:xlink="http://www.w3.org/1999/xlink" xml:space="preserve" xmlns:serif="http://www.serif.com/" style="fill-rule:evenodd;clip-rule:evenodd;stroke-linejoin:round;stroke-miterlimit:2;">
    <g id="XMLID_255_">
        <path id="XMLID_920_" d="M354.765,207.377C354.765,207.377 354.764,207.376 354.765,207.377C338.844,202.9 322.242,212.209 317.761,228.129C302.098,283.792 250.88,322.667 193.207,322.667C146.659,322.667 103.563,297.176 80.685,256.922L96.755,250.569C100.521,249.081 103.017,245.468 103.078,241.421C103.139,237.372 100.753,233.687 97.035,232.085L27.859,202.294C25.065,201.092 21.878,201.224 19.195,202.656C16.512,204.088 14.627,206.663 14.071,209.652L0.168,284.522C-0.552,288.403 1.076,292.343 4.326,294.583C7.576,296.821 11.839,296.941 15.207,294.886L28.609,286.712C44.11,313.902 66.172,336.919 92.928,353.704C123.131,372.652 157.807,382.668 193.207,382.668C277.638,382.668 352.606,325.803 375.518,244.382C377.688,236.668 376.725,228.57 372.805,221.581C368.886,214.591 362.478,209.547 354.765,207.377ZM356.266,238.963C335.771,311.798 268.719,362.667 193.207,362.667C129.463,362.667 69.878,325.591 41.407,268.211C40.161,265.7 37.918,263.827 35.225,263.049C34.314,262.786 33.38,262.656 32.45,262.656C30.63,262.656 28.826,263.153 27.242,264.119L23.924,266.142L31.449,225.616L66.878,240.874L64.024,242.002C63.566,242.183 61.804,243.159 61.804,243.159C57.32,245.752 55.557,251.34 57.743,256.036C82.24,308.662 135.413,342.667 193.207,342.667C259.799,342.667 318.934,297.795 337.013,233.547C338.507,228.24 344.041,225.14 349.349,226.629C351.92,227.353 354.055,229.034 355.362,231.363C356.668,233.694 356.989,236.392 356.266,238.963Z" style="fill:rgb(26,101,158);fill-rule:nonzero;"/>
        <path id="XMLID_926_" d="M382.023,92.699C378.78,90.459 374.523,90.334 371.153,92.377L358.24,100.211C345.708,77.94 328.707,58.243 308.61,42.788C275.324,17.19 235.418,3.672 193.207,3.672C150.996,3.672 111.09,17.226 77.804,42.824C45.509,67.66 21.737,102.965 10.867,142.139C6.445,158.078 15.814,174.169 31.752,179.169L31.754,179.169C39.476,181.169 47.569,180.219 54.545,176.274C61.519,172.329 66.541,165.806 68.683,158.084C84.111,102.482 135.317,63.649 193.207,63.649C240.311,63.649 283.624,89.424 306.253,130.115L289.584,136.703C285.819,138.191 283.322,141.803 283.261,145.851C283.2,149.9 285.586,153.585 289.304,155.187L358.48,184.978C359.746,185.523 361.092,185.793 362.436,185.793C364.059,185.793 365.677,185.399 367.145,184.616C369.828,183.184 371.713,180.609 372.268,177.619L386.17,102.75C386.89,98.876 385.266,94.94 382.023,92.699ZM354.891,161.656L319.461,146.398L322.317,145.273C322.775,145.092 325.006,143.855 325.006,143.855C329.464,141.28 331.238,135.754 329.104,131.068C304.935,77.98 251.592,43.705 193.207,43.705C126.364,43.705 67.233,88.62 49.412,152.849C48.698,155.423 47.023,157.687 44.698,159.002C42.375,160.318 39.677,160.17 37.105,160.17L37.102,160.17C31.789,158.17 28.665,152.937 30.14,147.623C39.858,112.599 61.116,80.844 89.997,58.633C119.756,35.747 155.445,23.649 193.207,23.649C230.969,23.649 266.659,35.745 296.417,58.631C316.947,74.419 333.869,95.177 345.353,118.661C346.587,121.184 348.826,123.072 351.521,123.863C354.215,124.652 357.12,124.273 359.521,122.818L362.429,121.054L354.891,161.656Z" style="fill:rgb(26,101,158);fill-rule:nonzero;"/>
    </g>
</svg>
