<?xml version="1.0" encoding="UTF-8" standalone="no"?>
<!DOCTYPE svg PUBLIC "-//W3C//DTD SVG 1.1//EN" "http://www.w3.org/Graphics/SVG/1.1/DTD/svg11.dtd">
<svg width="100%" height="100%" viewBox="0 0 420 420" version="1.1" xmlns="http://www.w3.org/2000/svg" xmlns:xlink="http://www.w3.org/1999/xlink" xml:space="preserve" xmlns:serif="http://www.serif.com/" style="fill-rule:evenodd;clip-rule:evenodd;stroke-linejoin:round;stroke-miterlimit:2;">
    <g id="XMLID_299_">
        <path id="XMLID_305_" d="M210,0C94.206,0 0,94.206 0,210C0,325.794 94.206,420 210,420C325.794,420 420,325.794 420,210C420,94.206 325.794,0 210,0ZM210,400C105.233,400 20,314.767 20,210C20,105.233 105.233,20 210,20C314.767,20 400,105.233 400,210C400,314.767 314.767,400 210,400Z" style="fill:rgb(163,11,55);fill-rule:nonzero;"/>
        <path id="XMLID_319_" d="M210,40C116.262,40 40,116.262 40,210C40,303.738 116.262,380 210,380C303.738,380 380,303.738 380,210C380,116.262 303.738,40 210,40ZM210,360C127.29,360 60,292.71 60,210C60,127.29 127.29,60 210,60C292.71,60 360,127.29 360,210C360,292.71 292.71,360 210,360Z" style="fill:rgb(163,11,55);fill-rule:nonzero;"/>
        <path id="XMLID_320_" d="M101.1,261.37C96.32,264.14 94.69,270.26 97.46,275.03C99.319,278.23 102.67,280.02 106.12,280.02C107.83,280.02 109.55,279.58 111.13,278.67C115.91,275.9 117.54,269.78 114.76,265C111.99,260.22 105.88,258.6 101.1,261.37Z" style="fill:rgb(163,11,55);fill-rule:nonzero;"/>
        <path id="XMLID_13_" d="M116.05,150.057C116.04,144.537 111.57,140.067 106.05,140.067C100.52,140.067 96.05,144.547 96.05,150.067C96.05,155.597 100.529,160.067 106.06,160.067C111.579,160.057 116.05,155.577 116.05,150.057Z" style="fill:rgb(163,11,55);fill-rule:nonzero;"/>
        <path id="XMLID_337_" d="M149.93,116.15C151.64,116.15 153.36,115.71 154.94,114.8C159.72,112.02 161.34,105.9 158.57,101.13C155.8,96.35 149.68,94.73 144.9,97.5C140.121,100.27 138.501,106.4 141.28,111.17C143.13,114.37 146.49,116.15 149.93,116.15Z" style="fill:rgb(163,11,55);fill-rule:nonzero;"/>
        <path id="XMLID_338_" d="M209.88,100C215.4,99.99 219.87,95.51 219.859,89.99C219.859,84.47 215.38,79.99 209.849,80C204.329,80.01 199.859,84.49 199.87,90.01C199.87,95.53 204.35,100.01 209.88,100Z" style="fill:rgb(163,11,55);fill-rule:nonzero;"/>
        <path id="XMLID_339_" d="M155.05,305.26C150.27,302.5 144.15,304.12 141.38,308.9C138.609,313.68 140.24,319.8 145.02,322.57C146.6,323.48 148.32,323.92 150.03,323.92C153.48,323.92 156.831,322.13 158.69,318.93C161.46,314.15 159.83,308.03 155.05,305.26Z" style="fill:rgb(163,11,55);fill-rule:nonzero;"/>
        <path id="XMLID_340_" d="M100,210.06C99.99,204.54 95.52,200.07 90,200.07C84.47,200.07 80,204.55 80,210.07C80,215.6 84.479,220.07 90.01,220.07C95.529,220.06 100,215.58 100,210.06Z" style="fill:rgb(163,11,55);fill-rule:nonzero;"/>
        <path id="XMLID_342_" d="M329.979,199.85C324.459,199.85 319.99,204.39 320,209.91C320.01,215.43 324.479,220 330,220L330.02,220C335.541,220 340.01,215.425 340,209.905C339.99,204.385 335.51,199.84 329.979,199.85Z" style="fill:rgb(163,11,55);fill-rule:nonzero;"/>
        <path id="XMLID_344_" d="M313.83,159.87C315.529,159.87 317.26,159.43 318.84,158.51C323.62,155.73 325.24,149.61 322.46,144.84C319.689,140.06 313.56,138.44 308.79,141.22C304.019,144 302.399,150.12 305.17,154.89C307.029,158.08 310.38,159.87 313.83,159.87Z" style="fill:rgb(163,11,55);fill-rule:nonzero;"/>
        <path id="XMLID_345_" d="M265.16,305.14C260.389,307.92 258.769,314.04 261.55,318.81C263.41,322 266.76,323.78 270.2,323.78C271.91,323.78 273.639,323.35 275.229,322.42C280,319.65 281.609,313.52 278.83,308.75C276.06,303.98 269.939,302.36 265.16,305.14Z" style="fill:rgb(163,11,55);fill-rule:nonzero;"/>
        <path id="XMLID_14_" d="M308.99,261.146C304.219,263.926 302.599,270.046 305.38,274.816C307.24,278.006 310.59,279.786 314.03,279.786C315.74,279.786 317.469,279.356 319.059,278.426C323.83,275.656 325.439,269.526 322.66,264.756C319.889,259.986 313.769,258.366 308.99,261.146Z" style="fill:rgb(163,11,55);fill-rule:nonzero;"/>
        <path id="XMLID_346_" d="M264.84,114.67C266.42,115.58 268.14,116.02 269.84,116.02C273.29,116.02 276.65,114.22 278.5,111.02C281.27,106.23 279.63,100.12 274.85,97.36C270.06,94.59 263.951,96.23 261.19,101.01C258.42,105.79 260.06,111.91 264.84,114.67Z" style="fill:rgb(163,11,55);fill-rule:nonzero;"/>
        <path id="XMLID_347_" d="M210.25,320L210,320C204.479,320 200,324.48 200,330C200,335.52 204.479,340 210,340L210.291,340C215.811,339.99 220.28,335.5 220.27,329.98C220.26,324.45 215.77,319.99 210.25,320Z" style="fill:rgb(163,11,55);fill-rule:nonzero;"/>
        <path id="XMLID_351_" d="M220,210L220,151C220,145.477 215.522,141 210,141C204.478,141 200,145.477 200,151L200,200L137,200C131.478,200 127,204.477 127,210C127,215.523 131.478,220 137,220L210,220C215.522,220 220,215.523 220,210Z" style="fill:rgb(163,11,55);fill-rule:nonzero;"/>
    </g>
</svg>
