<?xml version="1.0" encoding="UTF-8" standalone="no"?>
<!DOCTYPE svg PUBLIC "-//W3C//DTD SVG 1.1//EN" "http://www.w3.org/Graphics/SVG/1.1/DTD/svg11.dtd">
<svg width="100%" height="100%" viewBox="0 0 390 390" version="1.1" xmlns="http://www.w3.org/2000/svg" xmlns:xlink="http://www.w3.org/1999/xlink" xml:space="preserve" xmlns:serif="http://www.serif.com/" style="fill-rule:evenodd;clip-rule:evenodd;stroke-linejoin:round;stroke-miterlimit:2;">
    <g id="XMLID_579_">
        <path id="XMLID_583_" d="M345,26L45,26C20.187,26 0,46.187 0,71L0,245C0,269.813 20.187,290 45,290L51.168,290L33.397,351.212C32.183,355.394 33.814,359.88 37.431,362.306C39.121,363.439 41.062,364 42.999,364C45.207,364 47.41,363.27 49.225,361.826L139.521,290L345,290C369.813,290 390,269.813 390,245L390,71C390,46.187 369.813,26 345,26ZM370,245C370,258.785 358.785,270 345,270L136.028,270C133.767,270 131.572,270.766 129.803,272.174L61.363,326.615L74.087,282.788C74.964,279.767 74.369,276.51 72.48,273.995C70.591,271.48 67.629,270 64.484,270L45,270C31.215,270 20,258.785 20,245L20,71C20,57.215 31.215,46 45,46L345,46C358.785,46 370,57.215 370,71L370,245Z" style="fill:rgb(163,11,55);fill-rule:nonzero;"/>
        <path id="XMLID_599_" d="M100,125.5C79.322,125.5 62.5,142.322 62.5,163C62.5,183.678 79.322,200.5 100,200.5C120.678,200.5 137.5,183.678 137.5,163C137.5,142.322 120.678,125.5 100,125.5ZM100,180.5C90.351,180.5 82.5,172.649 82.5,163C82.5,153.351 90.351,145.5 100,145.5C109.649,145.5 117.5,153.351 117.5,163C117.5,172.649 109.649,180.5 100,180.5Z" style="fill:rgb(163,11,55);fill-rule:nonzero;"/>
        <path id="XMLID_640_" d="M195,125.5C174.322,125.5 157.5,142.322 157.5,163C157.5,183.678 174.322,200.5 195,200.5C215.678,200.5 232.5,183.678 232.5,163C232.5,142.322 215.678,125.5 195,125.5ZM195,180.5C185.351,180.5 177.5,172.649 177.5,163C177.5,153.351 185.351,145.5 195,145.5C204.649,145.5 212.5,153.351 212.5,163C212.5,172.649 204.649,180.5 195,180.5Z" style="fill:rgb(163,11,55);fill-rule:nonzero;"/>
        <path id="XMLID_691_" d="M290,125.5C269.322,125.5 252.5,142.322 252.5,163C252.5,183.678 269.322,200.5 290,200.5C310.678,200.5 327.5,183.678 327.5,163C327.5,142.322 310.678,125.5 290,125.5ZM290,180.5C280.351,180.5 272.5,172.649 272.5,163C272.5,153.351 280.351,145.5 290,145.5C299.649,145.5 307.5,153.351 307.5,163C307.5,172.649 299.649,180.5 290,180.5Z" style="fill:rgb(163,11,55);fill-rule:nonzero;"/>
    </g>
</svg>
