<?xml version="1.0" encoding="UTF-8" standalone="no"?>
<!DOCTYPE svg PUBLIC "-//W3C//DTD SVG 1.1//EN" "http://www.w3.org/Graphics/SVG/1.1/DTD/svg11.dtd">
<svg width="100%" height="100%" viewBox="0 0 395 395" version="1.1" xmlns="http://www.w3.org/2000/svg" xmlns:xlink="http://www.w3.org/1999/xlink" xml:space="preserve" xmlns:serif="http://www.serif.com/" style="fill-rule:evenodd;clip-rule:evenodd;stroke-linejoin:round;stroke-miterlimit:2;">
    <g id="XMLID_411_">
        <path id="XMLID_418_" d="M32.5,39.25C14.579,39.25 0,53.83 0,71.75C0,89.67 14.579,104.25 32.5,104.25C50.421,104.25 65,89.67 65,71.75C65,53.83 50.421,39.25 32.5,39.25ZM32.5,84.25C25.607,84.25 20,78.643 20,71.75C20,64.857 25.607,59.25 32.5,59.25C39.393,59.25 45,64.857 45,71.75C45,78.643 39.393,84.25 32.5,84.25Z" style="fill:rgb(163,11,55);fill-rule:nonzero;"/>
        <path id="XMLID_1400_" d="M394.25,50C394.25,44.477 389.773,40 384.25,40L94.25,40C88.727,40 84.25,44.477 84.25,50L84.25,95C84.25,100.523 88.727,105 94.25,105L384.25,105C389.773,105 394.25,100.523 394.25,95L394.25,50ZM374.25,85L104.25,85L104.25,60L374.25,60L374.25,85Z" style="fill:rgb(163,11,55);fill-rule:nonzero;"/>
        <path id="XMLID_1403_" d="M32.5,164.25C14.579,164.25 0,178.83 0,196.75C0,214.67 14.579,229.25 32.5,229.25C50.421,229.25 65,214.67 65,196.75C65,178.83 50.421,164.25 32.5,164.25ZM32.5,209.25C25.607,209.25 20,203.643 20,196.75C20,189.857 25.607,184.25 32.5,184.25C39.393,184.25 45,189.857 45,196.75C45,203.643 39.393,209.25 32.5,209.25Z" style="fill:rgb(163,11,55);fill-rule:nonzero;"/>
        <path id="XMLID_1406_" d="M394.25,175C394.25,169.477 389.773,165 384.25,165L94.25,165C88.727,165 84.25,169.477 84.25,175L84.25,220C84.25,225.523 88.727,230 94.25,230L384.25,230C389.773,230 394.25,225.523 394.25,220L394.25,175ZM374.25,210L104.25,210L104.25,185L374.25,185L374.25,210Z" style="fill:rgb(163,11,55);fill-rule:nonzero;"/>
        <path id="XMLID_1409_" d="M32.5,289.25C14.579,289.25 0,303.83 0,321.75C0,339.67 14.579,354.25 32.5,354.25C50.421,354.25 65,339.67 65,321.75C65,303.83 50.421,289.25 32.5,289.25ZM32.5,334.25C25.607,334.25 20,328.643 20,321.75C20,314.857 25.607,309.25 32.5,309.25C39.393,309.25 45,314.857 45,321.75C45,328.643 39.393,334.25 32.5,334.25Z" style="fill:rgb(163,11,55);fill-rule:nonzero;"/>
        <path id="XMLID_1412_" d="M394.25,300C394.25,294.477 389.773,290 384.25,290L94.25,290C88.727,290 84.25,294.477 84.25,300L84.25,345C84.25,350.523 88.727,355 94.25,355L384.25,355C389.773,355 394.25,350.523 394.25,345L394.25,300ZM374.25,335L104.25,335L104.25,310L374.25,310L374.25,335Z" style="fill:rgb(163,11,55);fill-rule:nonzero;"/>
    </g>
</svg>
