<?xml version="1.0" encoding="UTF-8" standalone="no"?>
<!DOCTYPE svg PUBLIC "-//W3C//DTD SVG 1.1//EN" "http://www.w3.org/Graphics/SVG/1.1/DTD/svg11.dtd">
<svg width="100%" height="100%" viewBox="0 0 137 59" version="1.1" xmlns="http://www.w3.org/2000/svg" xmlns:xlink="http://www.w3.org/1999/xlink" xml:space="preserve" xmlns:serif="http://www.serif.com/" style="fill-rule:evenodd;clip-rule:evenodd;stroke-linejoin:round;stroke-miterlimit:2;">
    <g transform="matrix(1,0,0,1,-31.4013,-35.6793)">
        <g id="logotipo3CT.wmf" transform="matrix(0.250278,0,0,0.250278,31.4013,35.6793)">
            <g transform="matrix(0.0341228,0,0,0.0341311,0,0)">
                <path d="M8912,4274L8912,1794L16000,1794L16000,4274L15999,4288L15997,4303L15994,4317L15991,4332L15987,4345L15983,4359L15978,4372L15966,4398L15952,4422L15936,4444L15927,4455L15918,4465L15908,4475L15898,4484L15887,4493L15865,4509L15853,4516L15841,4522L15828,4528L15816,4533L15803,4538L15789,4542L15776,4545L15762,4548L15748,4550L15734,4551L15160,4551L15159,4494L15155,4437L15147,4382L15138,4327L15125,4273L15110,4220L15093,4168L15073,4118L15050,4069L15026,4021L14999,3974L14970,3929L14939,3885L14906,3843L14871,3803L14834,3764L14795,3727L14755,3692L14713,3659L14669,3628L14624,3599L14577,3572L14529,3548L14480,3525L14429,3505L14378,3488L14325,3473L14271,3460L14216,3450L14160,3443L14104,3439L14047,3438L13989,3439L13933,3443L13877,3450L13822,3460L13768,3473L13715,3488L13664,3505L13613,3525L13564,3548L13516,3572L13469,3599L13424,3628L13380,3659L13338,3692L13298,3727L13259,3764L13222,3803L13187,3843L13154,3885L13123,3929L13094,3974L13067,4021L13043,4069L13020,4118L13000,4168L12983,4220L12968,4273L12956,4327L12946,4382L12939,4437L12934,4494L12933,4551L11979,4551L11978,4494L11973,4437L11966,4382L11956,4327L11944,4273L11929,4220L11911,4168L11891,4118L11869,4069L11844,4021L11818,3974L11789,3929L11758,3885L11725,3843L11690,3803L11653,3764L11614,3727L11574,3692L11531,3659L11488,3628L11443,3599L11396,3572L11348,3548L11299,3525L11248,3505L11196,3488L11143,3473L11090,3460L11035,3450L10979,3443L10923,3439L10865,3438L10808,3439L10751,3443L10696,3450L10641,3460L10587,3473L10534,3488L10482,3505L10432,3525L10382,3548L10334,3572L10288,3599L10243,3628L10199,3659L10157,3692L10116,3727L10078,3764L10041,3803L10006,3843L9973,3885L9942,3929L9913,3974L9886,4021L9861,4069L9839,4118L9819,4168L9802,4220L9787,4273L9774,4327L9764,4382L9757,4437L9753,4494L9751,4551L9178,4551L9164,4550L9150,4548L9122,4542L9096,4534L9083,4528L9059,4516L9047,4509L9025,4493L9014,4484L9004,4475L8994,4465L8976,4445L8968,4434L8960,4422L8946,4398L8934,4372L8924,4346L8918,4318L8915,4303L8913,4289L8912,4274ZM8869,978L8869,297L8872,252L8878,224L8886,196L8891,183L8903,157L8917,133L8933,111L8942,100L8952,90L8961,80L8971,71L8982,62L8993,54L9004,47L9016,39L9028,33L9041,27L9053,22L9066,17L9080,13L9093,10L9107,7L9121,5L9135,4L15691,4L15706,5L15720,7L15733,10L15747,13L15760,17L15786,27L15810,39L15822,47L15833,54L15844,62L15855,71L15865,80L15875,90L15884,100L15893,111L15909,133L15917,145L15923,157L15930,170L15940,196L15945,210L15948,224L15952,238L15954,252L15956,267L15957,282L15957,978L8869,978Z" style="fill:rgb(159,196,218);"/>
            </g>
            <g transform="matrix(0.0341228,0,0,0.0341311,0,0)">
                <path d="M4695,0L12347,0L12367,20L12367,964L12347,984L10619,984L10619,4549L10599,4569L8901,4569L8881,4549L8881,984L8446,984L8451,1017L8455,1049L8458,1081L8459,1113L8459,1728L8439,1748L6711,1748L6691,1728L6691,1420L6690,1393L6690,1367L6688,1342L6684,1294L6681,1272L6677,1250L6673,1229L6668,1209L6663,1190L6657,1172L6650,1154L6636,1122L6628,1107L6619,1093L6610,1080L6600,1067L6578,1045L6567,1035L6555,1026L6542,1018L6529,1011L6501,999L6471,991L6455,988L6421,984L5432,984L5398,988L5382,991L5352,999L5324,1011L5311,1018L5298,1026L5286,1035L5274,1045L5263,1056L5253,1067L5243,1080L5234,1093L5225,1107L5217,1122L5209,1138L5202,1154L5190,1190L5185,1209L5180,1229L5176,1250L5172,1272L5169,1294L5166,1318L5164,1342L5163,1367L5162,1393L5162,3039L5163,3079L5165,3117L5170,3153L5175,3187L5179,3204L5183,3220L5198,3265L5210,3293L5216,3306L5223,3319L5239,3343L5247,3354L5265,3376L5274,3386L5284,3396L5295,3405L5306,3413L5317,3422L5329,3429L5341,3437L5353,3444L5366,3450L5380,3456L6447,3456L6460,3454L6474,3452L6486,3450L6499,3446L6511,3442L6522,3437L6534,3431L6545,3424L6565,3408L6575,3399L6584,3389L6602,3367L6618,3341L6626,3327L6633,3313L6639,3297L6646,3281L6652,3264L6657,3246L6663,3227L6667,3208L6672,3187L6680,3145L6686,3098L6691,3049L6691,2533L6711,2513L8439,2513L8459,2533L8459,3426L8458,3459L8456,3492L8453,3524L8449,3557L8444,3589L8437,3620L8429,3652L8420,3683L8410,3714L8398,3745L8386,3775L8372,3806L8357,3836L8341,3866L8305,3924L8285,3954L8264,3982L8242,4011L8194,4067L8168,4095L8141,4123L8083,4177L8021,4231L7988,4257L7918,4309L7881,4335L7843,4360L7822,4373L7799,4386L7777,4398L7708,4431L7684,4442L7660,4451L7611,4470L7561,4487L7510,4503L7457,4517L7403,4529L7348,4539L7291,4548L7233,4556L7174,4561L7114,4565L7052,4568L6989,4569L4863,4569L4779,4567L4737,4565L4696,4563L4616,4555L4538,4545L4500,4539L4462,4532L4425,4524L4353,4506L4317,4496L4282,4485L4248,4474L4212,4485L4175,4496L4137,4506L4061,4524L4021,4532L3981,4539L3941,4545L3900,4550L3858,4555L3816,4559L3773,4563L3685,4567L3595,4569L1559,4569L1492,4568L1426,4565L1362,4561L1299,4556L1237,4548L1176,4539L1117,4529L1059,4517L1003,4503L947,4487L894,4470L841,4451L790,4431L740,4409L691,4386L644,4360L598,4333L554,4305L510,4275L469,4243L428,4210L389,4175L351,4138L314,4100L279,4060L245,4018L212,3975L181,3930L151,3884L123,3836L95,3786L69,3735L53,3681L39,3627L27,3573L17,3519L13,3491L10,3464L7,3436L4,3409L2,3381L0,3325L0,3109L20,3089L1837,3089L1857,3109L1857,3240L1858,3261L1860,3282L1863,3302L1867,3321L1871,3339L1876,3357L1882,3374L1889,3391L1905,3421L1914,3436L1924,3449L1935,3462L1959,3486L1972,3497L1986,3507L2016,3525L2050,3541L2086,3553L2126,3563L2147,3567L2169,3570L2215,3574L2239,3575L2943,3575L2987,3573L3008,3571L3028,3568L3048,3564L3067,3560L3085,3556L3119,3544L3135,3538L3150,3531L3178,3515L3191,3506L3203,3496L3214,3486L3225,3475L3235,3463L3253,3439L3261,3425L3268,3411L3274,3397L3279,3382L3284,3366L3292,3332L3294,3315L3296,3296L3298,3258L3298,3169L3297,3149L3295,3129L3292,3110L3287,3092L3282,3073L3275,3056L3266,3038L3257,3022L3246,3005L3234,2989L3220,2974L3205,2959L3189,2944L3172,2930L3153,2916L3134,2903L3112,2890L3090,2878L3066,2866L3041,2854L3015,2843L2988,2833L2959,2822L2929,2813L2897,2803L2865,2795L2831,2786L2795,2778L2759,2771L2721,2764L2682,2757L2642,2751L2423,2742L2225,2742L2105,2751L2096,2742L2096,2731L2105,1828L2115,1818L2136,1818L2249,1817L2356,1814L2407,1812L2457,1809L2505,1806L2551,1803L2597,1799L2640,1795L2682,1790L2723,1784L2762,1778L2800,1772L2836,1765L2870,1758L2903,1751L2935,1742L2965,1734L2994,1725L3021,1715L3046,1705L3070,1695L3093,1684L3114,1672L3133,1661L3151,1648L3167,1635L3182,1622L3196,1609L3208,1594L3218,1580L3230,1557L3240,1534L3248,1511L3255,1489L3260,1466L3264,1444L3266,1423L3267,1401L3267,1381L3266,1344L3264,1309L3261,1276L3256,1245L3250,1216L3242,1188L3238,1176L3233,1163L3228,1151L3223,1140L3211,1118L3204,1108L3198,1099L3190,1090L3183,1081L3175,1073L3167,1066L3158,1059L3150,1052L3140,1046L3131,1040L3121,1035L3111,1031L3089,1023L3073,1016L3055,1010L3034,1005L3012,1001L2987,997L2960,995L2931,994L2900,993L2265,993L2241,994L2197,996L2176,999L2156,1002L2136,1006L2117,1010L2099,1016L2065,1028L2020,1052L1994,1072L1970,1094L1959,1107L1950,1119L1940,1133L1932,1147L1924,1162L1917,1178L1905,1212L1901,1229L1893,1267L1891,1287L1889,1308L1888,1329L1887,1351L1887,1460L1867,1480L129,1480L109,1460L109,1242L110,1191L113,1141L118,1092L124,1044L132,997L142,951L154,906L168,861L183,818L200,775L220,734L241,693L263,653L288,614L314,576L343,539L373,503L405,468L438,433L474,400L511,367L550,336L591,305L634,275L679,246L725,218L774,191L824,165L876,140L929,115L985,92L1042,69L1096,56L1147,44L1197,34L1244,25L1289,19L1331,14L1372,11L1410,10L3744,10L3775,11L3835,13L3895,19L3925,23L3955,28L3985,34L4014,40L4044,47L4102,63L4189,93L4218,105L4254,90L4291,77L4329,63L4367,50L4412,38L4456,28L4498,20L4540,13L4580,7L4620,3L4658,1L4695,0Z" style="fill:rgb(1,51,102);fill-rule:nonzero;"/>
            </g>
            <g transform="matrix(0.0341228,0,0,0.0341311,0,0)">
                <path d="M460,5060L634,5060L634,5375L821,5375L821,5543L634,5543L634,6139L635,6148L639,6164L642,6171L646,6178L650,6183L655,6189L661,6193L667,6198L674,6201L682,6204L700,6208L710,6209L720,6209L732,6208L743,6207L755,6205L768,6201L780,6197L794,6191L807,6185L821,6178L821,6350L799,6357L778,6364L736,6374L694,6380L652,6382L628,6381L605,6379L584,6374L554,6365L545,6361L536,6356L528,6352L520,6346L512,6341L504,6334L497,6328L491,6321L484,6314L478,6306L468,6290L464,6282L456,6264L450,6244L448,6234L446,6223L443,6201L442,6178L442,5543L309,5543L309,5375L442,5375L460,5060Z" style="fill:rgb(114,112,111);fill-rule:nonzero;"/>
            </g>
            <g transform="matrix(0.0341228,0,0,0.0341311,0,0)">
                <path d="M1154,5518L1165,5498L1189,5462L1201,5446L1225,5418L1238,5406L1251,5395L1265,5386L1278,5377L1292,5370L1306,5365L1321,5360L1335,5357L1351,5355L1366,5354L1388,5356L1400,5357L1412,5360L1438,5366L1465,5375L1465,5575L1453,5569L1440,5564L1427,5560L1403,5554L1391,5553L1379,5551L1355,5551L1344,5552L1333,5554L1323,5556L1312,5559L1302,5562L1292,5566L1282,5571L1273,5576L1264,5582L1246,5596L1230,5612L1222,5621L1214,5631L1200,5651L1182,5684L1177,5695L1165,5731L1162,5743L1158,5769L1155,5796L1154,5823L1154,6361L958,6361L958,5375L1137,5375L1154,5518Z" style="fill:rgb(114,112,111);fill-rule:nonzero;"/>
            </g>
            <g transform="matrix(0.0341228,0,0,0.0341311,0,0)">
                <path d="M1625,5435L1643,5425L1662,5416L1681,5408L1699,5400L1718,5393L1736,5386L1755,5380L1773,5375L1792,5370L1828,5362L1846,5359L1864,5357L1883,5356L1919,5354L1963,5356L1984,5359L2005,5363L2043,5373L2061,5380L2079,5388L2096,5397L2112,5407L2127,5418L2142,5431L2155,5444L2169,5459L2181,5475L2193,5492L2203,5509L2212,5528L2220,5547L2227,5568L2232,5589L2235,5611L2237,5633L2238,5657L2238,6144L2239,6159L2241,6171L2243,6177L2245,6182L2248,6187L2254,6195L2262,6201L2272,6205L2277,6206L2283,6207L2289,6207L2296,6206L2304,6206L2318,6202L2332,6196L2339,6192L2346,6187L2346,6361L2314,6367L2282,6371L2251,6374L2202,6374L2184,6373L2167,6370L2151,6367L2136,6362L2123,6357L2111,6350L2100,6343L2090,6335L2081,6325L2073,6315L2067,6304L2062,6291L2058,6278L2055,6264L2053,6248L2041,6264L2029,6279L2016,6293L2003,6306L1990,6318L1977,6329L1963,6339L1950,6348L1936,6356L1921,6363L1906,6369L1876,6377L1861,6380L1845,6381L1828,6382L1812,6382L1796,6380L1781,6379L1751,6373L1737,6369L1723,6364L1710,6359L1697,6353L1685,6346L1672,6339L1661,6331L1649,6322L1638,6312L1628,6302L1618,6291L1608,6279L1590,6255L1583,6243L1569,6217L1563,6204L1553,6176L1549,6162L1543,6132L1541,6117L1539,6101L1538,6086L1538,6051L1540,6032L1542,6014L1550,5980L1562,5948L1569,5933L1578,5919L1587,5904L1597,5891L1621,5865L1634,5853L1664,5831L1680,5820L1697,5810L1735,5792L1755,5784L1776,5776L1798,5769L1821,5762L1845,5756L1871,5750L1897,5745L1924,5740L1952,5736L1981,5732L2011,5729L2042,5727L2042,5698L2041,5679L2039,5662L2035,5645L2030,5629L2024,5614L2016,5599L2007,5586L1996,5574L1984,5563L1971,5553L1957,5545L1942,5538L1926,5533L1909,5529L1891,5527L1872,5526L1844,5528L1830,5530L1816,5533L1801,5537L1786,5542L1756,5554L1724,5570L1692,5590L1676,5601L1642,5625L1625,5639L1625,5435ZM2042,5877L1997,5882L1957,5889L1921,5896L1888,5904L1873,5908L1859,5913L1847,5917L1835,5922L1824,5928L1814,5933L1805,5939L1797,5945L1784,5957L1772,5970L1762,5985L1753,5999L1744,6023L1742,6032L1739,6049L1738,6067L1739,6083L1741,6098L1744,6112L1748,6126L1754,6139L1761,6151L1769,6163L1778,6174L1789,6184L1800,6193L1811,6200L1824,6207L1836,6211L1850,6215L1864,6217L1879,6217L1897,6216L1914,6214L1922,6211L1930,6209L1937,6206L1945,6202L1959,6194L1966,6189L1972,6184L1985,6171L1997,6157L2007,6142L2016,6125L2024,6106L2030,6086L2035,6065L2039,6042L2041,6018L2042,5993L2042,5877Z" style="fill:rgb(114,112,111);fill-rule:nonzero;"/>
            </g>
            <g transform="matrix(0.0341228,0,0,0.0341311,0,0)">
                <path d="M2594,4918L2607,4919L2619,4920L2630,4923L2641,4927L2651,4933L2660,4939L2669,4947L2676,4955L2683,4965L2689,4975L2699,4997L2702,5009L2704,5022L2705,5035L2706,5049L2705,5064L2704,5077L2702,5090L2694,5114L2689,5125L2682,5135L2675,5144L2659,5160L2650,5166L2641,5171L2631,5175L2609,5179L2597,5180L2585,5179L2573,5177L2562,5174L2552,5170L2542,5165L2533,5158L2525,5150L2517,5141L2510,5132L2504,5121L2499,5111L2495,5099L2492,5088L2489,5075L2488,5063L2487,5049L2489,5021L2492,5008L2496,4996L2500,4985L2506,4974L2512,4964L2520,4954L2536,4938L2545,4932L2554,4927L2564,4923L2573,4920L2584,4918L2594,4918ZM2497,5375L2695,5375L2695,6361L2497,6361L2497,5375Z" style="fill:rgb(114,112,111);fill-rule:nonzero;"/>
            </g>
            <g transform="matrix(0.0341228,0,0,0.0341311,0,0)">
                <path d="M3129,5501L3142,5484L3156,5467L3170,5452L3185,5437L3199,5424L3214,5412L3230,5401L3246,5391L3262,5383L3279,5375L3296,5369L3313,5364L3330,5360L3348,5357L3367,5355L3385,5354L3401,5355L3431,5357L3459,5363L3472,5366L3498,5376L3510,5381L3522,5388L3544,5402L3555,5411L3565,5419L3585,5439L3593,5450L3602,5461L3610,5473L3624,5497L3630,5510L3640,5536L3648,5564L3651,5579L3654,5593L3656,5609L3658,5624L3658,5640L3659,5657L3659,6361L3461,6361L3461,5728L3460,5705L3459,5683L3456,5663L3453,5645L3449,5628L3443,5612L3437,5598L3430,5585L3421,5574L3412,5564L3401,5556L3390,5550L3377,5544L3364,5541L3349,5538L3323,5538L3313,5539L3293,5543L3283,5546L3274,5549L3264,5553L3246,5563L3237,5569L3221,5583L3212,5591L3204,5600L3197,5609L3189,5619L3182,5629L3175,5640L3169,5651L3157,5675L3152,5688L3148,5700L3140,5728L3137,5742L3133,5772L3130,5803L3129,5837L3129,6361L2935,6361L2935,5375L3113,5375L3129,5501Z" style="fill:rgb(114,112,111);fill-rule:nonzero;"/>
            </g>
            <g transform="matrix(0.0341228,0,0,0.0341311,0,0)">
                <path d="M3985,4918L3997,4919L4010,4920L4021,4923L4032,4927L4041,4933L4051,4939L4067,4955L4074,4965L4080,4975L4085,4986L4089,4997L4092,5009L4095,5022L4096,5035L4097,5049L4096,5064L4095,5077L4092,5090L4089,5102L4085,5114L4079,5125L4073,5135L4066,5144L4050,5160L4041,5166L4031,5171L4021,5175L4011,5177L3999,5179L3988,5180L3975,5179L3964,5177L3953,5174L3942,5170L3933,5165L3924,5158L3915,5150L3901,5132L3895,5121L3890,5111L3885,5099L3882,5088L3880,5075L3878,5063L3878,5035L3880,5021L3883,5008L3886,4996L3896,4974L3910,4954L3918,4946L3927,4938L3936,4932L3945,4927L3954,4923L3964,4920L3974,4918L3985,4918ZM3887,5375L4086,5375L4086,6361L3887,6361L3887,5375Z" style="fill:rgb(114,112,111);fill-rule:nonzero;"/>
            </g>
            <g transform="matrix(0.0341228,0,0,0.0341311,0,0)">
                <path d="M4520,5501L4533,5484L4547,5467L4575,5437L4590,5424L4605,5412L4621,5401L4636,5391L4653,5383L4669,5375L4686,5369L4703,5364L4721,5360L4739,5357L4757,5355L4776,5354L4791,5355L4807,5356L4821,5357L4863,5366L4876,5371L4888,5376L4901,5381L4913,5388L4935,5402L4946,5411L4956,5419L4966,5429L4975,5439L4984,5450L4992,5461L5008,5485L5014,5497L5026,5523L5031,5536L5039,5564L5042,5579L5045,5593L5047,5609L5048,5624L5049,5640L5049,6361L4852,6361L4852,5728L4851,5705L4850,5683L4847,5663L4844,5645L4839,5628L4834,5612L4827,5598L4820,5585L4812,5574L4802,5564L4792,5556L4768,5544L4740,5538L4714,5538L4704,5539L4693,5541L4684,5543L4664,5549L4655,5553L4637,5563L4628,5569L4619,5576L4611,5583L4603,5591L4587,5609L4580,5619L4572,5629L4565,5640L4559,5651L4553,5663L4548,5675L4543,5688L4538,5700L4534,5714L4528,5742L4525,5757L4523,5772L4520,5803L4520,6361L4326,6361L4326,5375L4504,5375L4520,5501Z" style="fill:rgb(114,112,111);fill-rule:nonzero;"/>
            </g>
            <g transform="matrix(0.0341228,0,0,0.0341311,0,0)">
                <path d="M5812,6216L5798,6234L5785,6250L5771,6266L5756,6280L5742,6293L5712,6315L5697,6325L5682,6333L5666,6341L5650,6347L5634,6352L5618,6356L5601,6359L5585,6361L5568,6361L5549,6360L5531,6359L5513,6356L5496,6352L5479,6347L5462,6340L5446,6333L5430,6324L5415,6314L5400,6303L5385,6291L5371,6278L5357,6263L5344,6248L5331,6231L5318,6213L5306,6194L5295,6175L5285,6156L5275,6136L5266,6116L5258,6095L5244,6053L5238,6031L5233,6009L5225,5963L5223,5939L5221,5916L5219,5891L5219,5867L5220,5841L5221,5816L5223,5791L5226,5766L5230,5742L5234,5719L5240,5695L5246,5673L5253,5650L5261,5628L5270,5607L5280,5586L5290,5566L5302,5545L5314,5526L5327,5507L5341,5488L5355,5471L5370,5455L5385,5440L5400,5426L5416,5414L5432,5403L5449,5392L5483,5376L5501,5369L5520,5364L5539,5360L5558,5357L5578,5355L5598,5354L5626,5356L5639,5358L5653,5361L5667,5365L5680,5370L5694,5375L5707,5382L5721,5389L5734,5397L5747,5406L5760,5416L5773,5427L5786,5439L5812,5465L5866,5375L6010,5375L6010,6388L6009,6413L6006,6439L6003,6463L5999,6487L5994,6510L5988,6533L5981,6555L5974,6576L5965,6597L5945,6637L5933,6656L5921,6674L5908,6692L5894,6709L5879,6725L5864,6740L5848,6754L5831,6767L5814,6779L5796,6790L5778,6800L5759,6809L5719,6823L5699,6829L5677,6834L5633,6840L5610,6841L5586,6842L5569,6842L5552,6841L5535,6839L5499,6833L5481,6828L5462,6823L5444,6818L5406,6804L5386,6796L5366,6787L5347,6778L5326,6768L5306,6757L5285,6745L5285,6520L5304,6538L5322,6554L5341,6570L5359,6584L5377,6597L5395,6609L5431,6629L5448,6637L5466,6645L5483,6651L5500,6656L5517,6660L5534,6663L5551,6665L5581,6665L5594,6664L5620,6660L5632,6657L5644,6653L5655,6649L5667,6644L5678,6638L5708,6617L5718,6608L5727,6599L5745,6579L5753,6568L5760,6557L5774,6533L5780,6521L5786,6508L5791,6495L5799,6467L5805,6439L5808,6424L5810,6409L5812,6377L5812,6216ZM5812,5644L5802,5631L5792,5619L5772,5597L5761,5587L5741,5571L5730,5563L5719,5557L5709,5552L5698,5547L5687,5543L5675,5540L5664,5538L5653,5537L5630,5537L5618,5538L5596,5542L5586,5546L5575,5550L5565,5554L5555,5560L5546,5566L5536,5573L5527,5580L5518,5588L5509,5597L5501,5607L5492,5618L5484,5629L5477,5640L5469,5653L5463,5665L5456,5678L5451,5692L5446,5705L5441,5720L5437,5734L5433,5750L5430,5765L5427,5781L5423,5815L5422,5832L5421,5850L5421,5868L5422,5901L5424,5932L5429,5963L5438,6005L5443,6019L5447,6032L5452,6045L5458,6057L5463,6069L5470,6081L5484,6103L5491,6113L5499,6122L5506,6131L5514,6139L5523,6146L5531,6153L5540,6159L5549,6164L5558,6168L5568,6172L5577,6175L5587,6178L5597,6180L5608,6181L5629,6181L5640,6180L5650,6178L5660,6175L5669,6172L5679,6168L5688,6163L5706,6151L5722,6137L5730,6128L5737,6119L5745,6109L5759,6087L5771,6063L5782,6040L5791,6016L5799,5992L5804,5968L5809,5943L5811,5919L5812,5895L5812,5644Z" style="fill:rgb(114,112,111);fill-rule:nonzero;"/>
            </g>
            <g transform="matrix(0.0341228,0,0,0.0341311,0,0)">
                <path d="M7009,5474L6989,5433L6971,5393L6956,5354L6944,5317L6939,5300L6935,5282L6931,5265L6928,5249L6924,5217L6923,5202L6923,5172L6924,5157L6928,5127L6931,5113L6935,5100L6940,5086L6945,5073L6951,5060L6957,5048L6965,5036L6972,5024L6981,5012L6990,5001L7000,4990L7011,4979L7022,4969L7046,4951L7059,4943L7072,4936L7086,4929L7100,4923L7115,4917L7130,4912L7162,4904L7178,4902L7195,4899L7231,4897L7250,4896L7290,4898L7312,4901L7333,4905L7356,4909L7379,4915L7427,4929L7427,5132L7406,5119L7385,5108L7365,5098L7346,5090L7327,5084L7309,5080L7291,5077L7275,5076L7259,5077L7244,5078L7230,5081L7216,5085L7203,5090L7191,5096L7179,5103L7168,5111L7158,5120L7150,5130L7142,5141L7136,5154L7132,5167L7128,5181L7126,5196L7126,5221L7128,5241L7130,5251L7136,5275L7145,5301L7155,5329L7169,5361L7184,5395L7202,5432L7427,5886L7432,5844L7437,5801L7443,5715L7445,5671L7447,5628L7448,5584L7448,5540L7644,5540L7643,5582L7641,5623L7638,5664L7634,5703L7630,5741L7618,5813L7612,5848L7604,5882L7596,5914L7587,5945L7577,5976L7566,6005L7555,6033L7543,6060L7530,6086L7665,6361L7448,6361L7396,6255L7380,6271L7362,6285L7328,6311L7310,6322L7293,6332L7275,6342L7239,6358L7221,6364L7202,6370L7184,6374L7146,6380L7108,6382L7064,6380L7043,6378L7022,6374L7002,6370L6964,6358L6945,6351L6927,6343L6910,6334L6893,6323L6877,6312L6861,6300L6845,6287L6831,6273L6817,6258L6803,6242L6779,6210L6768,6192L6758,6175L6749,6157L6733,6119L6727,6100L6721,6080L6716,6060L6712,6039L6709,6017L6707,5996L6705,5950L6706,5933L6706,5916L6712,5865L6718,5833L6723,5817L6727,5802L6732,5786L6744,5756L6751,5742L6758,5727L6774,5699L6783,5686L6792,5672L6814,5644L6826,5630L6852,5602L6897,5560L6931,5532L6969,5503L7009,5474ZM7072,5602L7051,5618L7032,5635L7014,5652L6997,5669L6982,5687L6968,5705L6956,5724L6944,5742L6934,5761L6926,5781L6919,5801L6913,5821L6908,5841L6905,5862L6903,5883L6902,5905L6902,5920L6903,5935L6909,5977L6912,5991L6920,6017L6925,6030L6930,6042L6936,6054L6950,6078L6957,6089L6966,6100L6974,6110L6984,6120L6993,6130L7003,6139L7013,6147L7033,6161L7055,6173L7066,6178L7077,6182L7101,6188L7125,6192L7137,6193L7163,6193L7175,6192L7186,6190L7198,6188L7210,6185L7221,6182L7232,6178L7254,6168L7265,6161L7275,6155L7286,6147L7296,6140L7306,6131L7325,6112L7072,5602Z" style="fill:rgb(114,112,111);fill-rule:nonzero;"/>
            </g>
            <g transform="matrix(0.0341228,0,0,0.0341311,0,0)">
                <path d="M8994,6318L8965,6333L8936,6346L8907,6357L8877,6366L8848,6373L8819,6378L8804,6380L8790,6381L8775,6382L8760,6382L8714,6380L8692,6377L8670,6373L8649,6368L8629,6362L8609,6355L8590,6347L8571,6338L8552,6327L8535,6316L8501,6290L8485,6275L8470,6259L8455,6242L8427,6206L8415,6187L8393,6147L8375,6105L8367,6083L8360,6060L8354,6036L8349,6012L8345,5988L8342,5963L8340,5937L8338,5910L8338,5855L8340,5827L8342,5800L8346,5773L8350,5747L8355,5722L8369,5674L8377,5650L8386,5627L8397,5605L8408,5584L8420,5563L8433,5543L8447,5523L8462,5504L8478,5486L8494,5469L8511,5453L8528,5439L8546,5425L8564,5413L8583,5402L8602,5392L8621,5383L8641,5375L8662,5369L8683,5364L8705,5360L8727,5357L8749,5355L8773,5354L8798,5355L8823,5358L8850,5363L8877,5369L8905,5377L8934,5387L8964,5399L8994,5412L8994,5623L8967,5602L8941,5584L8928,5576L8916,5569L8903,5562L8891,5556L8879,5551L8868,5546L8856,5542L8845,5539L8823,5535L8803,5533L8788,5534L8774,5535L8760,5537L8747,5539L8721,5547L8709,5552L8685,5564L8674,5571L8663,5579L8641,5597L8631,5608L8622,5618L8612,5630L8603,5642L8587,5668L8580,5681L8573,5695L8567,5709L8561,5724L8556,5738L8552,5754L8548,5769L8542,5801L8540,5818L8538,5852L8538,5887L8539,5905L8540,5921L8542,5938L8548,5970L8551,5985L8561,6015L8566,6029L8578,6057L8585,6070L8593,6083L8601,6095L8619,6119L8629,6129L8638,6139L8658,6157L8669,6165L8679,6172L8701,6184L8713,6188L8724,6193L8736,6196L8748,6198L8761,6200L8773,6201L8786,6202L8798,6201L8811,6200L8823,6199L8836,6196L8848,6193L8861,6189L8887,6179L8900,6173L8926,6159L8940,6151L8953,6142L8967,6132L8980,6122L8994,6111L8994,6318Z" style="fill:rgb(114,112,111);fill-rule:nonzero;"/>
            </g>
            <g transform="matrix(0.0341228,0,0,0.0341311,0,0)">
                <path d="M9517,5354L9541,5355L9565,5357L9588,5359L9610,5363L9632,5368L9653,5374L9673,5381L9693,5390L9712,5399L9748,5421L9766,5434L9782,5448L9798,5463L9814,5479L9829,5496L9843,5514L9856,5532L9868,5552L9879,5572L9890,5593L9899,5614L9908,5637L9922,5683L9928,5708L9933,5733L9937,5758L9943,5812L9945,5868L9944,5896L9943,5923L9941,5949L9937,5975L9934,6000L9929,6025L9923,6048L9916,6072L9909,6095L9901,6117L9892,6138L9881,6159L9871,6179L9859,6199L9846,6218L9833,6236L9818,6254L9788,6286L9771,6300L9755,6313L9737,6325L9719,6336L9700,6345L9680,6354L9660,6361L9639,6368L9618,6373L9596,6377L9573,6380L9525,6382L9501,6381L9478,6380L9455,6377L9433,6373L9411,6367L9390,6361L9370,6354L9351,6345L9332,6335L9314,6324L9296,6312L9280,6299L9248,6269L9234,6252L9206,6216L9194,6196L9182,6177L9172,6156L9162,6136L9153,6114L9145,6092L9138,6070L9131,6047L9126,6024L9121,6000L9117,5975L9114,5950L9112,5924L9110,5872L9111,5844L9112,5817L9114,5791L9118,5766L9121,5741L9126,5716L9132,5692L9146,5646L9164,5602L9174,5581L9185,5560L9197,5541L9210,5521L9223,5502L9238,5484L9268,5452L9284,5438L9301,5424L9318,5412L9335,5401L9353,5391L9391,5375L9411,5369L9431,5364L9452,5360L9473,5357L9495,5355L9517,5354ZM9549,5519L9524,5519L9511,5520L9498,5522L9486,5525L9474,5529L9463,5533L9441,5543L9421,5557L9411,5565L9402,5574L9386,5594L9378,5605L9370,5617L9363,5629L9357,5642L9345,5670L9335,5700L9327,5732L9323,5749L9320,5766L9316,5802L9313,5841L9312,5881L9313,5917L9316,5951L9318,5968L9321,5984L9327,6014L9331,6029L9336,6044L9341,6057L9346,6071L9358,6097L9372,6121L9380,6132L9396,6152L9404,6161L9422,6177L9431,6184L9441,6190L9450,6195L9460,6200L9470,6204L9492,6210L9503,6212L9514,6213L9537,6213L9549,6212L9560,6210L9582,6204L9592,6200L9612,6190L9622,6184L9631,6177L9649,6161L9658,6152L9674,6132L9682,6121L9690,6109L9697,6096L9709,6070L9715,6055L9720,6041L9732,5993L9735,5975L9738,5958L9740,5939L9741,5921L9743,5901L9743,5881L9744,5860L9743,5823L9740,5788L9738,5771L9729,5723L9721,5693L9716,5679L9710,5665L9705,5652L9698,5639L9692,5626L9685,5614L9669,5592L9661,5582L9645,5564L9636,5556L9627,5549L9609,5537L9600,5532L9590,5528L9570,5522L9559,5520L9549,5519Z" style="fill:rgb(114,112,111);fill-rule:nonzero;"/>
            </g>
            <g transform="matrix(0.0341228,0,0,0.0341311,0,0)">
                <path d="M10325,5501L10338,5484L10352,5467L10366,5452L10381,5437L10395,5424L10411,5412L10426,5401L10442,5391L10458,5383L10475,5375L10492,5369L10509,5364L10527,5360L10545,5357L10563,5355L10582,5354L10627,5357L10655,5363L10668,5366L10694,5376L10706,5381L10730,5395L10741,5402L10751,5411L10761,5419L10781,5439L10790,5450L10798,5461L10806,5473L10820,5497L10826,5510L10836,5536L10841,5550L10844,5564L10848,5579L10850,5593L10852,5609L10854,5624L10855,5640L10855,6361L10657,6361L10657,5705L10655,5683L10653,5663L10649,5645L10645,5628L10639,5612L10633,5598L10626,5585L10617,5574L10608,5564L10597,5556L10586,5550L10573,5544L10560,5541L10545,5538L10519,5538L10509,5539L10489,5543L10479,5546L10470,5549L10460,5553L10442,5563L10434,5569L10425,5576L10417,5583L10409,5591L10393,5609L10385,5619L10378,5629L10371,5640L10365,5651L10353,5675L10348,5688L10344,5700L10340,5714L10334,5742L10331,5757L10329,5772L10326,5803L10325,5837L10325,6361L10132,6361L10132,5375L10310,5375L10325,5501Z" style="fill:rgb(114,112,111);fill-rule:nonzero;"/>
            </g>
            <g transform="matrix(0.0341228,0,0,0.0341311,0,0)">
                <path d="M11033,6084L11052,6099L11072,6112L11091,6125L11111,6137L11130,6148L11148,6158L11167,6167L11186,6175L11204,6182L11222,6188L11240,6193L11276,6201L11310,6205L11328,6205L11368,6203L11387,6200L11405,6195L11422,6190L11438,6183L11453,6175L11467,6166L11480,6156L11491,6146L11501,6134L11508,6123L11514,6110L11519,6097L11521,6084L11522,6069L11521,6057L11519,6045L11516,6033L11511,6023L11504,6012L11497,6003L11487,5994L11477,5986L11464,5978L11449,5970L11432,5963L11413,5955L11391,5948L11368,5940L11342,5933L11314,5926L11280,5916L11249,5906L11219,5894L11192,5882L11166,5868L11143,5854L11133,5847L11113,5831L11104,5823L11095,5814L11088,5806L11080,5797L11073,5787L11067,5778L11061,5768L11051,5748L11047,5738L11044,5727L11041,5717L11038,5705L11036,5694L11035,5683L11034,5671L11034,5642L11035,5626L11038,5610L11040,5595L11048,5565L11060,5537L11074,5511L11083,5498L11092,5486L11114,5462L11125,5451L11151,5429L11193,5402L11223,5388L11239,5381L11271,5371L11288,5366L11305,5363L11341,5357L11398,5354L11428,5356L11444,5357L11460,5359L11492,5365L11509,5369L11526,5374L11560,5385L11596,5398L11632,5414L11670,5432L11670,5644L11634,5616L11616,5603L11598,5591L11581,5580L11564,5570L11548,5561L11531,5553L11515,5546L11499,5540L11483,5535L11453,5527L11438,5525L11410,5523L11376,5525L11361,5528L11345,5531L11330,5535L11302,5547L11289,5555L11277,5563L11266,5572L11257,5582L11250,5592L11244,5603L11240,5615L11237,5628L11237,5652L11239,5662L11242,5672L11247,5681L11253,5690L11260,5698L11269,5706L11279,5713L11290,5720L11304,5727L11320,5734L11339,5742L11360,5749L11383,5757L11409,5765L11436,5774L11470,5784L11502,5794L11532,5806L11560,5818L11585,5831L11609,5845L11631,5859L11650,5874L11668,5890L11675,5899L11683,5908L11689,5918L11695,5927L11701,5938L11706,5948L11710,5960L11714,5971L11717,5983L11719,5995L11723,6021L11724,6035L11724,6049L11722,6085L11720,6102L11717,6119L11713,6136L11703,6168L11697,6183L11689,6198L11681,6212L11672,6226L11662,6239L11652,6253L11628,6277L11614,6289L11586,6311L11571,6321L11556,6330L11541,6338L11525,6346L11508,6352L11492,6359L11475,6364L11457,6369L11439,6373L11421,6376L11402,6379L11383,6380L11363,6382L11324,6382L11305,6381L11286,6379L11248,6373L11228,6369L11209,6365L11190,6360L11170,6354L11151,6347L11131,6340L11112,6332L11072,6314L11053,6304L11033,6293L11033,6084Z" style="fill:rgb(114,112,111);fill-rule:nonzero;"/>
            </g>
            <g transform="matrix(0.0341228,0,0,0.0341311,0,0)">
                <path d="M11885,5375L12079,5375L12079,6044L12081,6076L12084,6091L12088,6106L12092,6119L12098,6132L12106,6144L12114,6155L12123,6165L12133,6174L12144,6182L12155,6188L12168,6193L12182,6196L12196,6198L12212,6199L12222,6198L12233,6197L12243,6196L12263,6190L12272,6186L12282,6182L12291,6177L12299,6171L12308,6164L12316,6157L12325,6149L12332,6141L12340,6131L12347,6121L12355,6111L12361,6100L12368,6088L12374,6076L12379,6064L12389,6038L12393,6025L12397,6011L12403,5983L12407,5953L12410,5921L12411,5888L12411,5375L12609,5375L12609,6361L12421,6361L12411,6234L12397,6252L12384,6268L12369,6284L12355,6298L12340,6312L12325,6324L12310,6335L12294,6344L12279,6353L12263,6361L12246,6367L12230,6372L12213,6377L12195,6380L12178,6381L12160,6382L12144,6382L12128,6381L12098,6377L12084,6374L12070,6370L12057,6366L12044,6361L12031,6355L12019,6348L11997,6334L11986,6325L11966,6307L11957,6296L11948,6286L11932,6262L11925,6250L11919,6237L11907,6209L11903,6195L11898,6180L11895,6165L11892,6149L11889,6132L11887,6115L11886,6098L11885,6079L11885,5375Z" style="fill:rgb(114,112,111);fill-rule:nonzero;"/>
            </g>
            <g transform="matrix(0.0341228,0,0,0.0341311,0,0)">
                <rect x="12849" y="4918" width="198" height="1443" style="fill:rgb(114,112,111);fill-rule:nonzero;"/>
            </g>
            <g transform="matrix(0.0341228,0,0,0.0341311,0,0)">
                <path d="M13338,5060L13512,5060L13512,5375L13699,5375L13699,5543L13512,5543L13512,6139L13513,6148L13517,6164L13520,6171L13524,6178L13528,6183L13534,6189L13539,6193L13546,6198L13553,6201L13561,6204L13569,6206L13579,6208L13588,6209L13599,6209L13610,6208L13622,6207L13634,6205L13646,6201L13659,6197L13685,6185L13699,6178L13699,6350L13657,6364L13615,6374L13594,6377L13572,6380L13530,6382L13506,6381L13484,6379L13462,6374L13442,6368L13433,6365L13424,6361L13415,6356L13406,6352L13398,6346L13390,6341L13383,6334L13376,6328L13369,6321L13363,6314L13357,6306L13342,6282L13334,6264L13328,6244L13326,6234L13324,6223L13322,6201L13321,6178L13321,5543L13187,5543L13187,5375L13321,5375L13338,5060Z" style="fill:rgb(114,112,111);fill-rule:nonzero;"/>
            </g>
            <g transform="matrix(0.0341228,0,0,0.0341311,0,0)">
                <path d="M13939,4918L13952,4919L13964,4920L13976,4923L13986,4927L13996,4933L14005,4939L14014,4947L14022,4955L14029,4965L14035,4975L14040,4986L14044,4997L14047,5009L14051,5035L14051,5064L14047,5090L14044,5102L14039,5114L14034,5125L14028,5135L14021,5144L14013,5152L14004,5160L13995,5166L13986,5171L13976,5175L13954,5179L13942,5180L13930,5179L13918,5177L13907,5174L13897,5170L13887,5165L13878,5158L13870,5150L13862,5141L13855,5132L13849,5121L13844,5111L13840,5099L13837,5088L13835,5075L13833,5063L13833,5035L13835,5021L13837,5008L13841,4996L13845,4985L13851,4974L13857,4964L13865,4954L13873,4946L13882,4938L13890,4932L13900,4927L13909,4923L13919,4920L13929,4918L13939,4918ZM13842,5375L14041,5375L14041,6361L13842,6361L13842,5375Z" style="fill:rgb(114,112,111);fill-rule:nonzero;"/>
            </g>
            <g transform="matrix(0.0341228,0,0,0.0341311,0,0)">
                <path d="M14474,5501L14488,5484L14501,5467L14515,5452L14530,5437L14545,5424L14560,5412L14575,5401L14591,5391L14607,5383L14624,5375L14641,5369L14658,5364L14676,5360L14694,5357L14712,5355L14731,5354L14776,5357L14804,5363L14817,5366L14831,5371L14855,5381L14879,5395L14890,5402L14900,5411L14911,5419L14920,5429L14930,5439L14939,5450L14947,5461L14955,5473L14969,5497L14975,5510L14985,5536L14990,5550L14994,5564L14997,5579L14999,5593L15001,5609L15003,5624L15004,5640L15004,6361L14806,6361L14806,5705L14804,5683L14802,5663L14798,5645L14794,5628L14788,5612L14782,5598L14775,5585L14766,5574L14757,5564L14746,5556L14735,5550L14723,5544L14695,5538L14669,5538L14658,5539L14638,5543L14628,5546L14619,5549L14610,5553L14600,5558L14591,5563L14583,5569L14574,5576L14566,5583L14558,5591L14542,5609L14534,5619L14527,5629L14520,5640L14514,5651L14508,5663L14503,5675L14498,5688L14493,5700L14489,5714L14483,5742L14480,5757L14478,5772L14475,5803L14474,5837L14474,6361L14281,6361L14281,5375L14459,5375L14474,5501Z" style="fill:rgb(114,112,111);fill-rule:nonzero;"/>
            </g>
            <g transform="matrix(0.0341228,0,0,0.0341311,0,0)">
                <path d="M15767,6216L15753,6234L15725,6266L15711,6280L15696,6293L15682,6304L15667,6315L15652,6325L15636,6333L15621,6341L15605,6347L15589,6352L15573,6356L15556,6359L15539,6361L15522,6361L15486,6359L15468,6356L15451,6352L15434,6347L15417,6340L15401,6333L15385,6324L15370,6314L15355,6303L15340,6291L15326,6278L15312,6263L15299,6248L15286,6231L15273,6213L15261,6194L15239,6156L15221,6116L15205,6074L15199,6053L15193,6031L15188,6009L15180,5963L15177,5939L15175,5916L15174,5891L15174,5841L15175,5816L15181,5766L15184,5742L15189,5719L15194,5695L15201,5673L15208,5650L15216,5628L15225,5607L15235,5586L15245,5566L15257,5545L15269,5526L15282,5507L15296,5488L15310,5471L15324,5455L15339,5440L15355,5426L15371,5414L15403,5392L15421,5384L15438,5376L15456,5369L15474,5364L15493,5360L15513,5357L15532,5355L15552,5354L15580,5356L15594,5358L15608,5361L15621,5365L15649,5375L15675,5389L15689,5397L15702,5406L15715,5416L15728,5427L15741,5439L15767,5465L15820,5375L15965,5375L15965,6388L15963,6413L15961,6439L15958,6463L15954,6487L15949,6510L15943,6533L15936,6555L15920,6597L15900,6637L15888,6656L15876,6674L15863,6692L15849,6709L15834,6725L15818,6740L15802,6754L15786,6767L15769,6779L15751,6790L15733,6800L15714,6809L15674,6823L15653,6829L15632,6834L15588,6840L15565,6841L15541,6842L15524,6842L15507,6841L15489,6839L15472,6836L15454,6833L15436,6828L15417,6823L15399,6818L15380,6811L15360,6804L15341,6796L15301,6778L15281,6768L15261,6757L15240,6745L15240,6520L15258,6538L15277,6554L15295,6570L15314,6584L15332,6597L15350,6609L15368,6619L15385,6629L15403,6637L15420,6645L15438,6651L15455,6656L15472,6660L15489,6663L15506,6665L15536,6665L15549,6664L15575,6660L15587,6657L15599,6653L15610,6649L15621,6644L15632,6638L15643,6631L15663,6617L15673,6608L15682,6599L15691,6589L15699,6579L15715,6557L15729,6533L15735,6521L15745,6495L15750,6481L15754,6467L15760,6439L15764,6409L15766,6393L15766,6377L15767,6361L15767,6216ZM15767,5644L15757,5631L15747,5619L15737,5608L15716,5587L15706,5579L15695,5571L15685,5563L15674,5557L15652,5547L15641,5543L15630,5540L15619,5538L15607,5537L15584,5537L15573,5538L15551,5542L15540,5546L15520,5554L15500,5566L15482,5580L15473,5588L15464,5597L15455,5607L15431,5640L15424,5653L15417,5665L15411,5678L15405,5692L15400,5705L15396,5720L15391,5734L15388,5750L15384,5765L15382,5781L15379,5798L15378,5815L15376,5832L15376,5850L15375,5868L15376,5901L15379,5932L15383,5963L15389,5991L15397,6019L15407,6045L15412,6057L15424,6081L15438,6103L15446,6113L15453,6122L15461,6131L15469,6139L15477,6146L15486,6153L15495,6159L15504,6164L15522,6172L15542,6178L15552,6180L15563,6181L15584,6181L15594,6180L15605,6178L15614,6175L15624,6172L15634,6168L15643,6163L15652,6157L15660,6151L15669,6144L15677,6137L15685,6128L15692,6119L15699,6109L15707,6098L15713,6087L15726,6063L15737,6040L15746,6016L15753,5992L15759,5968L15763,5943L15766,5919L15767,5895L15767,5644Z" style="fill:rgb(114,112,111);fill-rule:nonzero;"/>
            </g>
        </g>
    </g>
</svg>
