<?xml version="1.0" standalone="no"?>
<!DOCTYPE svg PUBLIC "-//W3C//DTD SVG 20010904//EN"
 "http://www.w3.org/TR/2001/REC-SVG-20010904/DTD/svg10.dtd">
<svg version="1.0" xmlns="http://www.w3.org/2000/svg"
 width="1067.000000pt" height="576.000000pt" viewBox="0 0 1067.000000 576.000000"
 preserveAspectRatio="xMidYMid meet">

<g transform="translate(0.000000,576.000000) scale(0.100000,-0.100000)"
fill="#000000" stroke="none">
<path d="M6842 5395 c11 -53 18 -98 15 -101 -2 -2 -74 4 -158 16 -460 60 -738
80 -1219 87 -645 9 -1132 -26 -1705 -122 -1892 -317 -3236 -1180 -3401 -2184
-13 -81 -15 -139 -11 -265 6 -179 33 -305 101 -481 l35 -90 -30 35 c-61 70
-162 203 -231 303 l-70 102 7 -45 c39 -267 185 -576 396 -838 91 -111 297
-314 423 -415 239 -190 501 -352 828 -511 854 -417 1893 -659 3073 -717 291
-14 887 -6 1165 16 769 60 1415 186 2055 400 635 212 1151 480 1562 809 447
359 720 762 815 1200 31 145 32 437 0 579 -118 531 -490 1006 -1107 1412 -646
424 -1560 750 -2521 900 l-41 6 19 -96z m-1316 -498 c13 -15 27 -40 30 -54 4
-16 -15 -141 -50 -317 -31 -160 -56 -297 -56 -304 0 -9 48 -12 198 -12 562 -1
816 -64 978 -243 54 -60 110 -170 120 -233 3 -25 9 -46 13 -49 4 -2 26 96 50
217 23 122 48 233 56 248 29 56 10 55 734 55 698 0 740 -2 909 -46 319 -84
533 -289 614 -589 20 -74 23 -108 22 -260 0 -195 -18 -305 -75 -467 -132 -373
-435 -680 -786 -796 -190 -62 -256 -70 -655 -74 -322 -4 -358 -6 -362 -21 -3
-10 -32 -158 -65 -330 -34 -172 -68 -323 -76 -336 -30 -45 -51 -47 -409 -44
l-338 3 -29 33 c-22 24 -29 42 -29 72 0 22 25 166 55 322 30 155 55 286 55
290 0 4 -158 8 -351 8 l-351 0 -28 29 c-16 16 -32 40 -35 54 -4 16 41 271 119
674 69 356 126 671 126 699 0 62 -15 77 -88 93 -57 12 -512 16 -512 4 0 -23
-283 -1463 -292 -1486 -6 -15 -22 -37 -36 -47 -23 -19 -42 -20 -367 -20 -328
0 -343 1 -368 20 -52 41 -52 65 -2 325 26 130 45 238 43 241 -3 2 -27 -27 -54
-63 -105 -144 -280 -297 -430 -375 -91 -48 -253 -102 -374 -124 -75 -14 -169
-18 -452 -22 -197 -2 -358 -4 -358 -5 -3 -50 -134 -663 -145 -680 -30 -46 -49
-48 -409 -45 l-338 3 -29 33 c-20 23 -29 43 -29 68 0 67 531 2777 549 2804 10
14 33 33 52 43 32 17 74 18 709 14 720 -5 735 -6 915 -58 272 -79 482 -274
560 -520 12 -38 24 -71 26 -74 3 -2 62 291 133 652 70 361 134 665 141 677 32
45 41 46 403 43 l344 -2 24 -28z"/>
<path d="M4855 4810 c-3 -5 -123 -612 -266 -1347 -143 -736 -263 -1348 -266
-1361 l-5 -22 296 0 c163 0 296 1 296 3 1 1 69 353 153 782 l152 780 305 0
c266 0 313 -3 364 -18 110 -34 154 -108 142 -238 -3 -36 -60 -343 -126 -683
-66 -339 -120 -619 -120 -621 0 -3 135 -5 300 -5 165 0 300 2 300 4 0 1 58
302 129 667 71 365 132 700 136 744 24 271 -91 450 -342 534 -133 45 -227 53
-626 58 -345 5 -377 6 -373 21 7 23 136 690 136 702 0 14 -577 13 -585 0z"/>
<path d="M2315 4078 c-6 -18 -525 -2693 -525 -2707 0 -8 84 -11 295 -11 l295
0 5 23 c4 18 135 689 135 693 0 1 168 4 373 7 399 5 498 15 664 63 342 99 637
393 757 754 46 140 66 267 66 419 0 156 -23 260 -82 375 -112 216 -340 349
-663 386 -138 15 -1314 13 -1320 -2z m1179 -447 c210 -56 275 -153 263 -391
-11 -213 -93 -432 -203 -543 -74 -75 -185 -131 -314 -158 -126 -26 -630 -41
-630 -18 0 16 208 1093 217 1123 5 17 18 18 297 13 256 -4 301 -7 370 -26z"/>
<path d="M2842 3109 c-46 -239 -86 -445 -89 -458 l-6 -24 199 5 c222 6 308 21
413 70 75 36 135 92 178 168 62 109 104 273 104 411 1 147 -35 198 -167 235
-45 13 -117 18 -304 21 l-245 5 -83 -433z"/>
<path d="M6702 2737 c-144 -743 -262 -1358 -262 -1364 0 -10 66 -13 294 -13
l294 0 5 23 c3 12 33 164 67 337 34 173 64 325 66 336 5 21 9 22 377 27 275 4
399 9 475 22 281 44 465 137 658 331 189 190 296 405 341 688 22 139 14 344
-17 441 -96 301 -333 472 -715 515 -51 5 -357 10 -705 10 l-615 0 -263 -1353z
m1440 895 c102 -28 148 -52 195 -106 73 -83 91 -221 54 -413 -37 -191 -90
-309 -183 -409 -137 -146 -327 -194 -774 -194 -155 0 -174 2 -174 16 0 18 208
1099 216 1123 4 11 54 13 297 8 252 -4 302 -7 369 -25z"/>
<path d="M7491 3114 c-46 -236 -85 -442 -88 -458 l-6 -29 199 5 c263 7 372 32
479 109 121 87 215 327 215 546 -1 145 -34 191 -165 228 -46 13 -117 18 -305
22 l-246 5 -83 -428z"/>
</g>
</svg>
